<?xml version="1.0" encoding="UTF-8"?>
<!-- Generator: visioncortex VTracer 0.6.12 -->
<svg viewBox="0 0 514 95" version="1.1" xmlns="http://www.w3.org/2000/svg" width="514" height="95">
<path d="M0 0 C2.94 1.94 2.94 1.94 5 5 C5.44 7.56 5.62 10 5.66 12.6 C6.08 15.57 6.91 16.87 9 19 C12.34 20.37 15.98 20.24 19.56 20.31 C20.7 20.35 21.83 20.39 23 20.43 C26 20 26 20 27.88 18.35 C29.26 15.45 29.33 13.26 29.38 10.06 C29.64 5.97 29.82 4.28 32.06 0.75 C35.79 -1.47 38.82 -1.77 43 -1 C46.31 0.35 48.48 1.48 51 4 C51.17 5.77 51.27 7.54 51.31 9.31 C51.61 13.29 51.78 14.7 54.19 18 C59.77 21.97 63.12 23.48 69.9 22.46 C72.4 21.91 74.63 20.96 77 20 C80 19.56 80 19.56 83 20 C83.4 20.42 83.4 20.42 85.44 22.56 C88 25 88 25 91.31 25.06 C94.26 24.21 96.3 23.37 98.94 21.94 C103.26 19.65 106.13 19.36 111 20 C113.66 21.72 115.49 23.39 117.5 25.81 C119 27 119 27 121.21 26.8 C124.58 25.83 127.17 24.22 130.19 22.44 C139.6 17.39 149.61 17.33 159.82 20 C168.02 22.99 174.49 25.98 178.37 34.04 C178.7 34.77 179.03 35.5 179.38 36.25 C179.73 37 180.08 37.74 180.45 38.51 C181.31 40.33 182.16 42.16 183 44 C183.99 44 184.98 44 186 44 C186.21 43.44 186.42 42.89 186.63 42.31 C190.34 33.11 196.24 25.92 205.44 21.88 C206.18 21.54 206.92 21.21 207.68 20.87 C214.76 18.22 224.12 17.43 231.34 19.75 C232.6 20.41 233.84 21.11 235.06 21.84 C237.38 23.23 239.75 24.27 242.25 25.31 C243.06 25.66 243.87 26.01 244.7 26.36 C247.37 27.1 248.45 27.04 251 26 C253.29 24.51 253.29 24.51 255.62 22.69 C256.01 22.39 256.01 22.39 257.98 20.89 C262.53 16.64 262.59 11.7 263.34 5.78 C264.04 2.81 264.58 1.78 267 0 C272.34 -1.78 276.42 -1.75 281.44 0.62 C284.56 3.52 284.75 4.81 285 9 C285.55 15.36 285.55 15.36 287.5 18.12 C290.47 20.35 293.58 22.06 296.88 23.75 C298.97 24.98 300.45 26.14 302 28 C302 28.66 302 29.32 302 30 C306.17 29.63 308.07 28.14 311.13 25.41 C319.49 19.12 329.31 17.06 339.53 18.31 C344.97 19.23 348.5 20.7 353 24 C354.2 24.5 355.39 24.99 356.62 25.5 C360.1 27.04 361.86 27.88 364 31 C364.85 34.04 365.23 36.84 365 40 C363.29 42.48 361.86 42.79 359.01 43.49 C353.46 44.43 348.87 43.92 344 41 C341.62 38.38 341.62 38.38 340 36 C337.66 34.83 336.23 34.87 333.62 34.88 C332.85 34.87 332.08 34.87 331.29 34.87 C329 35 329 35 325 36 C325.33 38.97 325.66 41.94 326 45 C330 46.85 333.44 47.29 337.81 47.62 C344.03 48.27 349.12 50.05 354.69 52.88 C355.36 53.21 356.03 53.55 356.72 53.9 C365.01 58.34 365.01 58.34 366.73 62.96 C367.74 70.59 367.58 77.52 363 84 C355.77 90.99 344.98 94.1 335.12 94.5 C325.27 94.11 314.93 92.02 307.61 85.07 C306 84 306 84 303.91 84.18 C302 85 302 85 300.19 87.38 C297.06 91.12 293.73 92.68 288.86 93.25 C281.81 93.45 273.57 92.64 268 88 C261.14 80.21 262.32 71.19 262.38 61.38 C262.38 58.85 262.38 56.33 262.35 53.8 C262.34 52.24 262.34 50.68 262.36 49.12 C262.34 44.33 261.45 41.11 259 37 C257.13 37.19 257.13 37.19 255 38 C253.8 40.25 253.8 40.25 252.88 43 C251.19 47.91 251.19 47.91 249 49 C244.94 49.73 242.02 50.19 238.35 48.03 C235.38 45.93 232.6 43.63 229.82 41.29 C225.58 37.85 222.37 37.47 217 38 C213.4 39.63 210.13 41.44 207.79 44.68 C206.65 48.04 206.71 51.31 206.75 54.81 C206.74 55.5 206.73 56.19 206.73 56.89 C206.74 61.55 207.39 65.57 209 70 C213.57 74.34 217 75.57 223.2 75.55 C227.66 74.67 230.37 72.04 233.68 69.04 C238.33 64.95 241.81 63.35 247.97 63.59 C250 64 250 64 252.12 66 C253.68 71.34 252.87 75.33 250.38 80.12 C242.17 90.06 233.39 92.32 220.8 93.85 C215.11 94.08 210.32 92.91 205 91 C204.47 90.81 204.47 90.81 201.81 89.88 C194.19 84.8 188.94 78.69 186 70 C185.01 70 184.02 70 183 70 C180.15 74.58 180.56 79.54 180.34 84.79 C180 88 180 88 178 91 C174.46 92.18 171.72 92.2 168 92 C167.37 91.67 166.74 91.35 166.09 91.01 C161.12 88.61 155.02 89.42 149.86 90.9 C147.81 91.63 145.75 92.36 143.7 93.09 C136.1 95.64 129.1 93.08 122 90 C116.92 86.19 113.6 80.84 112.61 74.54 C112.35 68.67 113.44 63.76 117 59 C125.71 51.56 135.54 49.3 146.64 48.67 C147.42 48.62 148.2 48.57 149.01 48.52 C149.36 48.5 149.36 48.5 151.12 48.43 C153.58 47.87 154.52 47.03 156 45 C155.56 38.56 155.56 38.56 154 37 C148.87 36.31 144.48 36.15 140.25 39.38 C139.69 39.83 139.14 40.29 138.56 40.75 C133.36 44.9 126.32 44.65 120 44 C117.98 43.05 115.97 42.05 114 41 C108.46 40.56 104.31 41.23 99 43 C98.01 43.33 97.02 43.66 96 44 C94.94 46.25 94.94 46.25 94 49 C93.66 49.79 93.33 50.57 92.98 51.38 C90.79 57.23 90.95 63.59 91.05 69.77 C91.06 70.61 91.07 71.45 91.08 72.31 C91.11 74 91.15 75.68 91.21 77.36 C91.3 82.11 91.08 85.13 88 89 C84.86 91.69 83.48 92.03 79.31 91.75 C77.87 91.51 76.44 91.26 75 91 C68.35 89.87 63.69 90.14 57.29 92.28 C49.91 94.6 41.84 92.12 35 89 C30.09 83.82 29.84 79.43 29.75 72.57 C29.72 70.87 29.69 69.17 29.65 67.47 C29.61 64.8 29.56 62.12 29.52 59.45 C29.48 56.86 29.43 54.28 29.38 51.7 C29.37 50.9 29.36 50.1 29.35 49.28 C29.26 45.15 29.09 41.69 27 38 C21.25 36.04 14.42 36.84 9 39.44 C7 41 7 41 6 43 C5.73 47.27 5.77 51.54 5.75 55.81 C5.73 57 5.71 58.19 5.69 59.42 C5.68 60.56 5.68 61.71 5.67 62.89 C5.66 63.94 5.65 65 5.64 66.08 C6.05 69.44 7.01 71.28 9 74 C11.45 75.73 11.45 75.73 14.12 77.19 C18.91 79.81 18.91 79.81 20 82 C20.4 85.68 20.51 87.35 18.19 90.31 C13.86 93.65 9.23 93.41 4 93 C-7.48 91.28 -7.48 91.28 -11.12 87.25 C-14.49 81.42 -15.24 76.15 -15.09 69.49 C-15.07 68.08 -15.05 66.67 -15.03 65.25 C-14.99 63.06 -14.94 60.86 -14.88 58.66 C-14.84 56.52 -14.81 54.38 -14.78 52.24 C-14.75 50.97 -14.72 49.7 -14.69 48.39 C-15.05 44.44 -16.18 41.82 -19 39 C-20.67 38.96 -22.33 38.96 -24 39 C-26.4 43.69 -26.21 47.87 -26.09 52.99 C-26.07 54.77 -26.05 56.54 -26.03 58.32 C-25.99 61.1 -25.94 63.88 -25.88 66.66 C-25.84 69.35 -25.81 72.05 -25.78 74.74 C-25.76 75.57 -25.73 76.39 -25.71 77.24 C-25.67 82.58 -26.45 86.27 -29 91 C-32.18 92.59 -35.53 92.4 -39 92 C-39.95 91.48 -40.9 90.97 -41.88 90.44 C-46.42 88.35 -50.2 88.87 -55 90 C-57.11 90.97 -57.11 90.97 -59.06 92.06 C-64.51 95.03 -69.1 94.73 -75.03 93.23 C-88.55 89.02 -88.55 89.02 -92.31 82.31 C-94.59 77.12 -95.86 72.15 -94.34 66.57 C-92.41 61.8 -90.45 58.75 -86 56 C-85.28 55.49 -84.57 54.99 -83.83 54.47 C-76.56 49.8 -70.3 49.29 -61.92 49.2 C-58.2 49.01 -55.44 48.36 -52 47 C-51.3 42.98 -50.83 39.92 -52 36 C-58.76 35.52 -62.48 35.74 -68 40 C-72.91 43.14 -77 45.68 -82.94 44.5 C-86.1 43.63 -87.86 42.49 -90 40 C-90.94 38.19 -90.94 38.19 -91 36 C-86.54 27.62 -78.82 22.62 -70 19.52 C-66.24 18.54 -62.5 18.45 -58.62 18.44 C-57.88 18.44 -57.13 18.43 -56.36 18.43 C-51.31 18.58 -47.57 19.73 -43 22 C-42.1 22.45 -41.2 22.89 -40.27 23.35 C-38.62 24.2 -36.98 25.06 -35.33 25.91 C-33.13 26.94 -31.4 27.67 -29 28 C-26.72 26.12 -24.81 24.33 -22.81 22.19 C-22.27 21.63 -21.72 21.07 -21.16 20.49 C-17.27 16.46 -15.98 14.61 -15.75 9.12 C-15.33 4.35 -15.33 4.35 -12.56 1.44 C-8.08 -1.08 -5 -1.35 0 0 Z M54 38 C51.31 41.76 50.62 44.37 50.6 48.96 C50.6 50.09 50.59 51.22 50.59 52.39 C50.6 53.56 50.61 54.73 50.62 55.94 C50.61 57.1 50.6 58.27 50.59 59.47 C50.63 70.34 50.63 70.34 54 75 C56.9 77.57 60.05 78.92 63.94 79.25 C64.62 79.17 65.3 79.09 66 79 C68.72 74.33 69.38 70.94 69.36 65.55 C69.36 64.86 69.36 64.17 69.36 63.46 C69.36 62 69.35 60.55 69.34 59.1 C69.31 56.87 69.32 54.65 69.32 52.43 C69.27 40.32 69.27 40.32 67 37 C62.9 34.95 57.68 35.24 54 38 Z M287 39 C282.69 44.78 283.75 50.6 284.06 57.5 C284.09 58.72 284.12 59.95 284.15 61.21 C284.19 62.39 284.24 63.57 284.29 64.78 C284.33 65.85 284.37 66.93 284.41 68.03 C285.13 71.65 286.47 73.36 289 76 C291.74 77.55 293.28 78.07 296.41 77.76 C300.18 76.66 302.12 74.32 304.84 71.59 C307.76 69.44 309.35 68.97 313 69 C316.75 70.69 320.07 73.09 323.46 75.4 C328.55 78.66 332.91 80.25 339 79 C341.86 76.56 342.8 75.05 343.5 71.38 C343 69 343 69 341.25 67.42 C338.89 65.93 337.23 65.41 334.5 64.94 C333.62 64.78 332.74 64.61 331.84 64.45 C329.92 64.14 328 63.89 326.07 63.68 C318.11 62.71 312.13 60.27 306 55 C304 51.81 304 51.81 303 48 C302.73 46.97 302.46 45.95 302.18 44.89 C301.41 41.94 300.69 38.97 300 36 C294.77 35.69 291.41 36.09 287 39 Z M-72 68 C-72 71.38 -72 71.38 -71 75 C-68.05 77.74 -66.24 78.94 -62.19 79.12 C-57.67 77.53 -53.49 75.32 -50 72 C-49.07 69.07 -48.76 67.65 -49.81 64.75 C-51 63 -51 63 -53 62 C-59.27 61.2 -67.49 63.49 -72 68 Z M135 68 C135 71.38 135 71.38 136 75 C138.95 77.74 140.76 78.94 144.81 79.12 C149.43 77.49 153.46 75.44 157 72 C157.76 68.26 157.77 66.4 155.94 63.06 C149.59 59.58 139.84 63.16 135 68 Z " fill="#131316" transform="translate(95,1)"/>
<path d="M0 0 C0.91 0.39 1.82 0.78 2.75 1.19 C3.08 2.84 3.41 4.49 3.75 6.19 C-0.1 8.75 -1.84 8.02 -6.25 7.19 C-6.58 5.54 -6.91 3.89 -7.25 2.19 C-4.53 -0.54 -3.86 -0.97 0 0 Z " fill="#131316" transform="translate(510.25,65.8125)"/>
</svg>
